<svg xmlns="http://www.w3.org/2000/svg" width="200" height="200" viewBox="0 0 200 200">
  <g fill="#334fa7" fill-rule="evenodd">
    <path d="M146.153846,61.7813039 L146.153846,20.7299069 C146.153846,9.37633667 137.569872,0.137978613 127.020513,0.137978613 L19.1333333,0.137978613 C8.58397436,0.137978613 0,9.37633667 0,20.7299069 L0,61.7833736 C0,71.9296309 6.85320513,80.3863401 15.8429487,82.0682994 L6.66089744,99.361159 C5.80897436,100.964471 6.05,102.980338 7.24679487,104.303553 C7.99038462,105.123146 8.98910256,105.554329 10.0012821,105.554329 C10.6217949,105.554329 11.250641,105.392204 11.8237179,105.058296 L50.9692308,82.3725423 L127.020513,82.3725423 C137.569872,82.3725423 146.153846,73.1348741 146.153846,61.7813039 Z M50,74.0938255 C49.3641026,74.0938255 48.7378205,74.2635392 48.1769231,74.5898586 L20.0044872,90.9154881 L25.6461538,80.2869955 C26.3269231,79.006554 26.3217949,77.4329079 25.6333333,76.1552259 C24.9448718,74.8809934 23.6782051,74.0938255 22.3083333,74.0938255 L19.1333333,74.0938255 C12.825641,74.0938255 7.69230769,68.5719214 7.69230769,61.7813039 L7.69230769,20.7299069 C7.69230769,13.9413591 12.825641,8.41669541 19.1333333,8.41669541 L127.020513,8.41669541 C133.328205,8.41669541 138.461538,13.9413591 138.461538,20.7299069 L138.461538,61.7833736 C138.461538,68.5719214 133.328205,74.0938255 127.020513,74.0938255 L50,74.0938255 Z"/>
    <path d="M180.353846 93.9634357L72.4660256 93.9634357C61.9166667 93.9634357 53.3326923 103.201794 53.3326923 114.555364L53.3326923 155.608831C53.3326923 166.960331 61.9166667 176.197999 72.4660256 176.197999L148.517949 176.197999 187.665385 198.883753C188.238462 199.217661 188.864744 199.379786 189.485897 199.379786 190.5 199.379786 191.498718 198.948603 192.242308 198.12901 193.439744 196.805795 193.680128 194.789928 192.826282 193.186616L183.646154 175.893756C192.633333 174.211797 199.489103 165.755088 199.489103 155.608831L199.489103 114.555364C199.486538 103.201794 190.905128 93.9634357 180.353846 93.9634357zM191.794231 155.606761C191.794231 162.397378 186.663462 167.919283 180.353846 167.919283L177.178205 167.919283C175.808974 167.919283 174.541667 168.706451 173.853205 169.980683 173.164744 171.258365 173.159615 172.832011 173.840385 174.112453L179.484615 184.740945 151.309615 168.415316C150.751282 168.088996 150.125 167.919283 149.486538 167.919283L72.4660256 167.919283C66.1583333 167.919283 61.025 162.397378 61.025 155.606761L61.025 114.555364C61.025 107.766816 66.1583333 102.242152 72.4660256 102.242152L180.355769 102.242152C186.663462 102.242152 191.794231 107.766816 191.794231 114.555364L191.794231 155.606761zM56.6679487 50.9127285C55.6538462 50.9127285 54.6621795 51.3542601 53.9435897 52.1276302 53.2326923 52.8961711 52.8217949 53.9655053 52.8217949 55.0520869 52.8217949 56.1462573 53.2326923 57.2107623 53.9435897 57.9786133 54.6621795 58.7519834 55.6512821 59.1914453 56.6679487 59.1914453 57.6775641 59.1914453 58.6685897 58.7519834 59.3852564 57.9786133 60.1038462 57.2107623 60.5141026 56.1462573 60.5141026 55.0520869 60.5141026 53.9655053 60.1038462 52.8961711 59.3852564 52.1276302 58.6685897 51.3542601 57.6775641 50.9127285 56.6679487 50.9127285zM73.0794872 50.9127285C72.0628205 50.9127285 71.0737179 51.3542601 70.3551282 52.1276302 69.6416667 52.8961711 69.2333333 53.9655053 69.2333333 55.0520869 69.2333333 56.1407382 69.6416667 57.2107623 70.3551282 57.9786133 71.0737179 58.7519834 72.0628205 59.1914453 73.0794872 59.1914453 74.0884615 59.1914453 75.0826923 58.7519834 75.7961538 57.9786133 76.5147436 57.2107623 76.925641 56.1407382 76.925641 55.0520869 76.925641 53.9655053 76.5147436 52.8961711 75.7961538 52.1276302 75.0826923 51.3542601 74.0884615 50.9127285 73.0794872 50.9127285zM89.4884615 50.9127285C88.474359 50.9127285 87.4826923 51.3542601 86.7660256 52.1276302 86.0525641 52.8961711 85.6423077 53.9655053 85.6423077 55.0520869 85.6423077 56.1462573 86.0525641 57.2107623 86.7660256 57.9786133 87.4826923 58.7519834 88.474359 59.1914453 89.4884615 59.1914453 90.5 59.1914453 91.4891026 58.7519834 92.2076923 57.9786133 92.9237179 57.2107623 93.3346154 56.1407382 93.3346154 55.0520869 93.3346154 53.9655053 92.9237179 52.9010003 92.2076923 52.1276302 91.4891026 51.3542601 90.5 50.9127285 89.4884615 50.9127285z"/>
    <path d="M110.001282 146.947913C108.987179 146.947913 107.995513 147.386685 107.278846 148.160745 106.565385 148.934115 106.155128 149.99862 106.155128 151.087271 106.155128 152.173163 106.565385 153.243187 107.278846 154.016557 107.995513 154.784408 108.987179 155.22663 110.001282 155.22663 111.012821 155.22663 112.001923 154.784408 112.720513 154.016557 113.436538 153.243187 113.847436 152.173163 113.847436 151.087271 113.847436 149.99862 113.436538 148.928596 112.720513 148.160745 112.00641 147.386685 111.012821 146.947913 110.001282 146.947913zM126.412179 146.947913C125.395513 146.947913 124.40641 147.386685 123.687821 148.160745 122.974359 148.928596 122.566026 149.99862 122.566026 151.087271 122.566026 152.178682 122.976923 153.243187 123.687821 154.011038 124.40641 154.784408 125.395513 155.22663 126.412179 155.22663 127.421154 155.22663 128.410256 154.784408 129.128846 154.011038 129.847436 153.243187 130.258333 152.173163 130.258333 151.087271 130.258333 149.99862 129.847436 148.934115 129.128846 148.160745 128.417949 147.386685 127.421154 146.947913 126.412179 146.947913zM142.821154 146.947913C141.807051 146.947913 140.817949 147.386685 140.099359 148.160745 139.385256 148.928596 138.975 149.99862 138.975 151.087271 138.975 152.173163 139.385256 153.243187 140.099359 154.011038 140.815385 154.784408 141.807051 155.22663 142.821154 155.22663 143.832692 155.22663 144.821795 154.784408 145.540385 154.011038 146.253846 153.243187 146.667308 152.178682 146.667308 151.087271 146.667308 149.99862 146.251282 148.928596 145.540385 148.160745 144.821795 147.386685 143.832692 146.947913 142.821154 146.947913z"/>
  </g>
</svg>
