<svg xmlns="http://www.w3.org/2000/svg" xmlns:xlink="http://www.w3.org/1999/xlink" width="200" height="194" viewBox="0 0 200 194">
  <defs>
    <polygon id="custom-features-a" points=".032 .562 .032 193.023 199.829 193.023 199.829 .562"/>
  </defs>
  <g fill="none" fill-rule="evenodd" transform="translate(0 .25)">
    <mask id="custom-features-b" fill="#fff">
      <use xlink:href="#custom-features-a"/>
    </mask>
    <path fill="#1B1564" d="M196.629333,168.964563 L188.243733,168.964563 L188.243733,126.335947 L195.3856,126.335947 C197.154133,126.335947 198.5856,124.796927 198.5856,122.899356 L198.5856,36.3024256 C198.5856,34.4025638 197.154133,32.865835 195.3856,32.865835 L79.552,32.865835 C77.7856,32.865835 76.352,34.4025638 76.352,36.3024256 L76.352,56.2329333 L67.0730667,56.2329333 L67.0730667,3.99904602 C67.0730667,2.10204796 65.6394667,0.562455341 63.8730667,0.562455341 L5.95626667,0.562455341 C4.18773333,0.562455341 2.75626667,2.10204796 2.75626667,3.99904602 L2.75626667,90.596549 C2.75626667,92.4935471 4.18773333,94.0331397 5.95626667,94.0331397 L11.5877333,94.0331397 L11.5877333,104.185974 L5.95626667,104.185974 C4.18773333,104.185974 2.75626667,105.725567 2.75626667,107.622565 L2.75626667,146.266454 C2.75626667,148.164025 4.18773333,149.703045 5.95626667,149.703045 L11.5877333,149.703045 L11.5877333,168.964563 L3.2,168.964563 C1.4336,168.964563 0,170.501864 0,172.401154 C0,183.771687 8.6144,193.022989 19.2021333,193.022989 L180.629333,193.022989 C191.216533,193.022989 199.829333,183.771687 199.829333,172.401154 C199.829333,170.501864 198.397867,168.964563 196.629333,168.964563 Z M82.752,119.462765 L192.1856,119.462765 L192.1856,39.7390163 L82.752,39.7390163 L82.752,119.462765 Z M52.6581333,111.059155 L34.9146667,122.899356 L17.1706667,111.059155 L52.6581333,111.059155 Z M17.9877333,104.185974 L21.4,104.185974 L21.4,94.0331397 L17.9877333,94.0331397 L17.9877333,104.185974 Z M60.6730667,113.804419 L60.6730667,140.086891 L40.9770667,126.944796 L60.6730667,113.804419 Z M52.6581333,142.829863 L17.1706667,142.829863 L34.9146667,130.989663 L52.6581333,142.829863 Z M17.9877333,149.703045 L21.4,149.703045 L21.4,161.86113 C21.4,163.758128 22.8330667,165.297721 24.6,165.297721 L175.231467,165.297721 C176.997867,165.297721 178.431467,163.758128 178.431467,161.86113 L178.431467,126.335947 L181.843733,126.335947 L181.843733,168.962272 L17.9877333,168.962272 L17.9877333,149.703045 Z M67.0730667,66.7729569 L76.352,66.7729569 L76.352,63.1061146 L67.0730667,63.1061146 L67.0730667,66.7729569 Z M67.0730667,90.596549 L67.0730667,73.6461382 L76.352,73.6461382 L76.352,122.899356 C76.352,124.796927 77.7856,126.335947 79.552,126.335947 L172.031467,126.335947 L172.031467,158.424539 L27.8,158.424539 L27.8,149.703045 L63.8730667,149.703045 C65.6394667,149.703045 67.0730667,148.166316 67.0730667,146.266454 L67.0730667,107.622565 C67.0730667,105.725567 65.6394667,104.185974 63.8730667,104.185974 L27.8,104.185974 L27.8,94.0331397 L63.8730667,94.0331397 C65.6394667,94.0331397 67.0730667,92.4958381 67.0730667,90.596549 Z M9.15626667,87.1599583 L60.6730667,87.1599583 L60.6730667,7.4356367 L9.15626667,7.4356367 L9.15626667,87.1599583 Z M9.15626667,140.086891 L9.15626667,113.804419 L28.8501333,126.944796 L9.15626667,140.086891 Z M180.629333,186.149807 L19.2021333,186.149807 C13.248,186.149807 8.22933333,181.760135 6.80426667,175.837744 L193.025067,175.837744 C191.6,181.760135 186.583467,186.149807 180.629333,186.149807 Z" mask="url(#custom-features-b)"/>
    <path fill="#1B1564" d="M184.991654 43.3040571L89.5645587 43.3040571C87.8119672 43.3040571 86.3905325 44.8480228 86.3905325 46.750409L86.3905325 112.455683C86.3905325 114.360367 87.8119672 115.902035 89.5645587 115.902035L184.991654 115.902035C186.744246 115.902035 188.16568 114.360367 188.16568 112.455683L188.16568 46.750409C188.16568 44.8480228 186.744246 43.3040571 184.991654 43.3040571zM92.7385848 109.009331L92.7385848 106.756566 113.530572 79.4752439 126.212393 96.1171031 116.386667 109.009331 92.7385848 109.009331zM181.817628 109.009331L124.62538 109.009331 153.836472 70.6795794 181.817628 107.395864 181.817628 109.009331zM181.817628 50.196761L181.817628 96.5858069 156.281001 63.0757782C155.677407 62.2836916 154.780745 61.8259012 153.836472 61.8259012 152.890083 61.8259012 151.992892 62.2836916 151.389827 63.0757782L130.332808 90.7115 115.975101 71.8714428C115.372036 71.0793562 114.474845 70.6215658 113.530572 70.6215658 112.584183 70.6215658 111.687521 71.0793562 111.083927 71.8714428L92.7385848 95.9442111 92.7385848 50.196761 181.817628 50.196761zM47.6329653 22.9256773L22.1895199 22.9256773C20.3924335 22.9256773 18.9349112 24.3500411 18.9349112 26.1097991 18.9349112 27.8679651 20.3924335 29.293921 22.1895199 29.293921L47.6329653 29.293921C49.4295093 29.293921 50.887574 27.8679651 50.887574 26.1097991 50.887574 24.3500411 49.4295093 22.9256773 47.6329653 22.9256773zM47.6329653 36.9358134L22.1895199 36.9358134C20.3924335 36.9358134 18.9349112 38.3601772 18.9349112 40.1199353 18.9349112 41.8781012 20.3924335 43.3040571 22.1895199 43.3040571L47.6329653 43.3040571C49.4295093 43.3040571 50.887574 41.8781012 50.887574 40.1199353 50.887574 38.3601772 49.4295093 36.9358134 47.6329653 36.9358134zM47.6329653 50.9459495L22.1895199 50.9459495C20.3924335 50.9459495 18.9349112 52.3703134 18.9349112 54.1300714 18.9349112 55.8882373 20.3924335 57.3141932 22.1895199 57.3141932L47.6329653 57.3141932C49.4295093 57.3141932 50.887574 55.8882373 50.887574 54.1300714 50.887574 52.3703134 49.4295093 50.9459495 47.6329653 50.9459495zM47.6329653 64.9560857L22.1895199 64.9560857C20.3924335 64.9560857 18.9349112 66.3804495 18.9349112 68.1402075 18.9349112 69.8983734 20.3924335 71.3243293 22.1895199 71.3243293L47.6329653 71.3243293C49.4295093 71.3243293 50.887574 69.8983734 50.887574 68.1402075 50.887574 66.3804495 49.4295093 64.9560857 47.6329653 64.9560857z"/>
    <path fill="#1B1564" d="M130.769231,75.1452756 C136.315686,75.1452756 140.828402,70.2885403 140.828402,64.3192613 C140.828402,58.3499823 136.315686,53.493247 130.769231,53.493247 C125.222776,53.493247 120.710059,58.3499823 120.710059,64.3192613 C120.710059,70.2885403 125.22068,75.1452756 130.769231,75.1452756 Z M130.769231,60.2598584 C132.848758,60.2598584 134.541093,62.0812046 134.541093,64.3192613 C134.541093,66.557318 132.848758,68.3786642 130.769231,68.3786642 C128.690227,68.3786642 126.997369,66.557318 126.997369,64.3192613 C126.997369,62.0812046 128.690227,60.2598584 130.769231,60.2598584 Z"/>
  </g>
</svg>
