<svg xmlns="http://www.w3.org/2000/svg" width="164" height="200" viewBox="0 0 164 200">
  <g fill="#1B1564" fill-rule="evenodd">
    <path d="M160.461644.263659668L3.27372527.263659668C1.46662892.263659668 0 1.84150717 0 3.78695144L0 23.1280616C0 25.0735059 1.46662892 26.6513534 3.27372527 26.6513534L160.461644 26.6513534C162.268741 26.6513534 163.735369 25.0735059 163.735369 23.1280616L163.735369 3.78695144C163.735369 1.84150717 162.268741.263659668 160.461644.263659668zM6.54745054 19.6047699L157.187919 19.6047699 157.187919 7.31024321 6.54745054 7.31024321 6.54745054 19.6047699zM160.461644 34.6891564L120.68861 34.6891564C118.881514 34.6891564 117.414885 36.2670039 117.414885 38.2124481L117.414885 77.6222283C117.414885 79.5676725 118.881514 81.14552 120.68861 81.14552L160.461644 81.14552C162.268741 81.14552 163.735369 79.5676725 163.735369 77.6222283L163.735369 38.2124481C163.735369 36.2670039 162.268741 34.6891564 160.461644 34.6891564zM152.072723 41.7357399L140.574309 53.1288911 129.077531 41.7357399 152.072723 41.7357399zM123.962336 46.2449662L135.74229 57.918219 123.962336 69.589123 123.962336 46.2449662zM129.079714 74.0989365L140.576491 62.7081342 152.072723 74.0989365 129.079714 74.0989365zM157.187919 69.589123L145.407964 57.918219 157.187919 46.2449662 157.187919 69.589123zM160.461644 90.5386159L120.68861 90.5386159C118.881514 90.5386159 117.414885 92.1170506 117.414885 94.0619077L117.414885 195.542693C117.414885 197.48755 118.881514 199.065985 120.68861 199.065985L160.461644 199.065985C162.268741 199.065985 163.735369 197.48755 163.735369 195.542693L163.735369 94.0619077C163.735369 92.1170506 162.268741 90.5386159 160.461644 90.5386159zM123.962336 192.019402L157.187919 192.019402 157.187919 97.5851994 123.962336 97.5851994 123.962336 192.019402zM43.0467592 34.6891564L3.27372527 34.6891564C1.46662892 34.6891564 0 36.2670039 0 38.2124481L0 69.1651536C0 71.1100106 1.46662892 72.6884454 3.27372527 72.6884454L43.0445767 72.6884454C44.8538556 72.6884454 46.318302 71.1100106 46.318302 69.1651536L46.318302 38.2124481C46.3204845 36.2670039 44.8538556 34.6891564 43.0467592 34.6891564zM32.9309481 41.7357399L23.1588782 49.3419396 13.3868083 41.7357399 32.9309481 41.7357399zM6.54745054 45.109879L17.5728116 53.6885073 6.54745054 62.2700716 6.54745054 45.109879zM13.3868083 65.6418618L23.1588782 58.0380109 32.9309481 65.6418618 13.3868083 65.6418618zM39.7708515 62.2700716L28.7476729 53.6885073 39.7708515 45.109879 39.7708515 62.2700716zM43.0467592 82.0815412L3.27372527 82.0815412C1.46662892 82.0815412 0 83.6593887 0 85.604833L0 195.542693C0 197.48755 1.46662892 199.065985 3.27372527 199.065985L43.0445767 199.065985C44.8538556 199.065985 46.318302 197.48755 46.318302 195.542693L46.318302 85.604833C46.3204845 83.6593887 44.8538556 82.0815412 43.0467592 82.0815412zM6.54745054 192.019402L39.7708515 192.019402 39.7708515 89.1281248 6.54745054 89.1281248 6.54745054 192.019402zM101.753929 148.326473L61.9814406 148.326473C60.1737986 148.326473 58.7077153 149.904908 58.7077153 151.849765L58.7077153 195.542693C58.7077153 197.48755 60.1737986 199.065985 61.9814406 199.065985L101.753929 199.065985C103.561571 199.065985 105.027654 197.48755 105.027654 195.542693L105.027654 151.849765C105.027654 149.904908 103.561571 148.326473 101.753929 148.326473zM93.9640996 155.373057L81.8665935 168.661152 69.7712699 155.373057 93.9640996 155.373057zM65.2551659 160.48183L77.2844694 173.695936 65.2551659 186.910629 65.2551659 160.48183zM69.7712699 192.019402L81.8665935 178.731307 93.9640996 192.019402 69.7712699 192.019402zM98.4802036 186.912977L86.4509001 173.695936 98.4802036 160.48183 98.4802036 186.912977zM101.753929 34.6891564L61.9814406 34.6891564C60.1737986 34.6891564 58.7077153 36.2670039 58.7077153 38.2124481L58.7077153 135.410085C58.7077153 137.35553 60.1737986 138.933377 61.9814406 138.933377L101.753929 138.933377C103.561571 138.933377 105.027654 137.35553 105.027654 135.410085L105.027654 38.2124481C105.027654 36.2670039 103.561571 34.6891564 101.753929 34.6891564zM65.2551659 131.886794L98.4802036 131.886794 98.4802036 41.7357399 65.2551659 41.7357399 65.2551659 131.886794z"/>
  </g>
</svg>
