<svg xmlns="http://www.w3.org/2000/svg" width="200" height="151" viewBox="0 0 200 151">
  <path fill="#1B1564" fill-rule="evenodd" d="M164.230027,73.8647976 C163.545308,73.8647976 162.860054,73.8873033 162.171046,73.9305834 C162.32815,72.3344113 162.405898,70.7249666 162.405898,69.1132137 C162.405898,58.3451111 158.872386,47.9959605 152.446113,39.8044699 L152.446113,11.6429387 C152.446113,5.76837904 148.005898,0.991981149 142.549598,0.991981149 L117.773727,0.991981149 C113.693834,0.991981149 110.085255,3.62687698 108.581233,7.70271343 L103.460054,21.5592878 L57.0691689,21.5592878 C51.6107239,21.5592878 47.1726542,26.3356857 47.1726542,32.2102454 L47.1726542,45.0811864 C38.1302949,51.7399824 32.5420912,62.3211147 31.8616622,74.0586927 C23.6739946,74.9266041 16.0879357,78.8016206 10.2359249,85.1649575 C3.63378016,92.3402301 0,101.852631 0,111.951334 C0,132.951442 15.8739946,150.03787 35.3887399,150.03787 L164.230027,150.03787 C183.742627,150.03787 199.618767,132.951442 199.618767,111.951334 C199.618767,90.9494945 183.742627,73.8647976 164.230027,73.8647976 Z M53.6069705,32.2102454 C53.6069705,30.1541495 55.1587131,28.4841126 57.0691689,28.4841126 L105.642359,28.4841126 C106.959786,28.4841126 108.145308,27.6185095 108.631635,26.3016386 L114.560858,10.2614362 C115.078284,8.85915916 116.368365,7.91680592 117.773727,7.91680592 L142.549598,7.91680592 C144.457909,7.91680592 146.011796,9.5874199 146.011796,11.6429387 L146.011796,77.881773 C139.299196,71.9558542 130.791421,68.5811563 121.724397,68.5811563 C109.603217,68.5811563 98.1715818,74.8544705 90.9871314,85.2082377 C85.3613941,79.7416656 78.0477212,76.6780077 70.3689008,76.6780077 C64.2761394,76.6780077 58.4911528,78.5984924 53.6069705,82.0072374 L53.6069705,32.2102454 Z M164.230027,143.113045 L35.3887399,143.113045 C19.4225201,143.113045 6.43431635,129.132978 6.43431635,111.951334 C6.43431635,94.9641616 19.277748,80.988134 35.0643432,80.7988555 C35.9292225,80.7873141 36.7544236,80.4018322 37.3533512,79.7301242 C37.9522788,79.0561079 38.2729223,78.1524183 38.2434316,77.2216064 L38.2353887,76.9982808 C38.2310992,76.8338162 38.2246649,76.6670434 38.2246649,76.5002705 C38.2246649,67.8217339 41.4879357,59.771625 47.1726542,53.9582347 L47.1726542,88.0099063 C45.0546917,90.618257 43.2932976,93.6115125 41.9903485,96.9227329 C41.2991957,98.6833696 42.063807,100.714652 43.7018767,101.460801 C44.1104558,101.645463 44.5356568,101.733178 44.9522788,101.733178 C46.2069705,101.733178 47.3983914,100.939708 47.9179625,99.618798 C51.7404826,89.8899963 60.5544236,83.6028324 70.3689008,83.6028324 C77.5592493,83.6028324 84.3479893,87.0023443 88.9957105,92.9305714 C89.6675603,93.7875185 90.6857909,94.2405174 91.7265416,94.1458782 C92.7656836,94.0512389 93.6975871,93.4199257 94.2273458,92.4527585 C99.9436997,82.0003126 110.47882,75.5059811 121.724397,75.5059811 C133.842895,75.5059811 144.763539,82.7487707 150.219839,94.4072903 C151.019839,96.1136825 152.953351,96.8009714 154.541019,95.9399849 C156.126542,95.0813066 156.765147,92.9986655 155.967292,91.289965 C154.945308,89.1097993 153.765684,87.0588971 152.446113,85.1470684 L152.446113,52.4347732 C154.746381,57.5943447 155.971582,63.2813571 155.971582,69.1132137 C155.971582,71.8387093 155.707775,74.556703 155.183914,77.1967925 C154.959786,78.3284242 155.276139,79.5050674 156.025737,80.3343152 C156.778016,81.1618317 157.862735,81.533464 158.920643,81.3216798 C160.682038,80.9679366 162.468633,80.7896224 164.230027,80.7896224 C180.194102,80.7896224 193.18445,94.7679583 193.18445,111.951334 C193.18445,129.135287 180.194102,143.113045 164.230027,143.113045 Z"/>
</svg>
