<svg xmlns="http://www.w3.org/2000/svg" xmlns:xlink="http://www.w3.org/1999/xlink" width="262" height="92" viewBox="0 0 262 92">
  <defs>
    <linearGradient id="logo-a" x1="50%" x2="50%" y1="0%" y2="100%">
      <stop offset="0%" stop-color="#6E92D8"/>
      <stop offset="100%" stop-color="#3B59B0"/>
    </linearGradient>
    <polygon id="logo-b" points="18.809 .562 37.056 37.328 18.809 43.308 .561 37.328"/>
    <polygon id="logo-c" points="18.824 .562 23.581 10.124 18.809 12.095 14.036 10.124"/>
    <linearGradient id="logo-d" x1="50%" x2="50%" y1="0%" y2="100%">
      <stop offset="0%" stop-color="#9BBEDD"/>
      <stop offset="100%" stop-color="#628AB8"/>
    </linearGradient>
    <path id="logo-e" d="M11.1435204,75.2224953 C10.2146735,76.4233502 15.6893044,78.4534322 27.5674131,81.3127413 C46.3403589,78.4110682 58.4073287,76.3809862 63.7683224,75.2224953 C78.9057158,71.9513607 94.391284,67.6986676 90.8366139,57.074167 C87.2819439,46.4496664 69.0092143,37.1428571 51.0279072,37.1428571 C33.0466001,37.1428571 78.3019019,46.3433654 78.3019019,56.4328328 C78.3019019,66.5223002 14.115726,71.3798948 11.1435204,75.2224953 Z"/>
    <path id="logo-f" d="M13.4344836,74.8886191 C12.1234703,76.652481 92.3958489,67.7835005 90.3054821,57.3484504 C88.2151152,46.9134004 69.7214809,37.1428571 52.8017703,37.1428571 C35.8820597,37.1428571 78.4655386,46.1522313 78.4655386,56.032097 C78.4655386,65.9119628 16.2312135,71.1258459 13.4344836,74.8886191 Z"/>
    <polygon id="logo-g" points="26.28 0 51.989 51.564 26.28 59.951 .571 51.564"/>
    <polygon id="logo-h" points="45.202 0 54.208 18.069 48.271 14.347 45.202 18.069 41.979 14.347 36.139 18.069"/>
    <rect id="logo-i" width="5.665" height="14.404" x="6.231" y="14.98"/>
    <ellipse id="logo-j" cx="9.347" cy="9.506" rx="9.347" ry="9.506"/>
    <rect id="logo-k" width="5.665" height="14.404" x="6.231" y="14.98"/>
    <ellipse id="logo-l" cx="9.347" cy="9.506" rx="9.347" ry="9.506"/>
    <rect id="logo-m" width="5.665" height="14.404" x="6.231" y="14.98"/>
    <ellipse id="logo-n" cx="9.347" cy="9.506" rx="9.347" ry="9.506"/>
  </defs>
  <g fill="none" fill-rule="evenodd" transform="translate(3 6)">
    <text fill="#1B1564" font-family="ChaparralPro-Bold, Chaparral Pro" font-size="48" font-weight="bold" letter-spacing="-.747">
      <tspan x="104.402" y="40">Anduin</tspan>
    </text>
    <text fill="#1B1564" font-family="SourceSansPro-Light, Source Sans Pro" font-size="18" font-weight="300" letter-spacing=".95">
      <tspan x="108.417" y="60">web development</tspan>
    </text>
    <g transform="translate(0 1.004)">
      <g transform="translate(56.216 1.004)">
        <use fill="url(#logo-a)" xlink:href="#logo-b"/>
        <path stroke="#1B1564" stroke-width="3" d="M18.8086741,-2.81160038 L39.1700434,38.2134911 L18.8086741,44.8862809 L-1.55269519,38.2134911 L18.8086741,-2.81160038 Z"/>
        <path stroke="#FBF1E3" d="M18.8086741,1.12078259 L0.706008818,37.4373391 L18.8086741,43.344279 L36.9113394,37.4373391 L18.8086741,1.12078259 Z"/>
        <polygon fill="#2A3493" points="18.528 .562 18.528 43.308 0 37.328"/>
        <use fill="#FBF1E3" xlink:href="#logo-c"/>
        <path stroke="#1B1564" stroke-width="3" d="M18.8280343,-2.79637808 L25.6406251,10.8960814 L18.8086741,13.7181086 L11.9729462,10.8945213 L18.8280343,-2.79637808 Z"/>
        <polygon fill="#EDDFCB" points="18.837 .612 18.837 12.119 14.036 10.124"/>
      </g>
      <use fill="url(#logo-d)" xlink:href="#logo-e"/>
      <path stroke="#1B1564" stroke-width="3" d="M9.95702979,74.304759 C10.9849279,72.9758462 14.3627003,72.101554 22.1696246,70.6900725 C25.2502258,70.1331039 40.370883,67.6195013 44.4070087,66.9022494 C65.1547797,63.2152037 76.8019019,59.5813265 76.8019019,56.4328328 C76.8019019,53.7456584 71.5150639,50.251563 61.9740638,46.2579117 C60.1345226,45.4879205 49.8245781,41.4720539 48.0829333,40.6327007 C47.2548061,40.2336003 46.6502912,39.8857345 46.2240075,39.5407705 C45.342383,38.8273284 44.8815794,37.8537651 45.6545756,36.8103214 C46.3719628,35.8419424 47.806509,35.6428571 51.0279072,35.6428571 C69.4785782,35.6428571 88.4418716,45.1889542 92.259109,56.5982387 C94.1842548,62.3522782 91.4330682,66.8523385 85.0107155,70.2331661 C80.2630298,72.7324225 74.0938668,74.525807 64.0851536,76.6886529 C58.6842128,77.8557761 46.6007556,79.8886319 27.7965423,82.795138 L27.5040781,82.8403432 L27.2163597,82.7710833 C21.2241499,81.3286332 16.8368434,80.0924447 14.0313355,79.0521168 C12.5493165,78.5025601 11.478248,77.9985752 10.7785412,77.5012554 C9.60988884,76.6706304 9.04408933,75.4850493 9.95702979,74.304759 Z"/>
      <path stroke="#FBF1E3" d="M11.554113,75.5103284 C11.6019942,75.5957944 11.7290468,75.7221253 11.9386664,75.8705872 C12.4651018,76.2434322 13.4028239,76.6831133 14.7386012,77.1766918 C17.4483201,78.1779507 21.753661,79.3880505 27.647058,80.803598 C46.4206208,77.9115113 58.4924643,75.8873422 63.8499457,74.7336992 C73.3125242,72.696093 79.3639798,70.8941644 83.8321509,68.4780021 C89.283066,65.5304213 91.6200551,61.9088578 90.6300252,57.1765538 C88.5034774,47.0117385 69.3766715,37.6428571 51.1696284,37.6428571 C49.1883515,37.6428571 47.9476227,37.7722313 47.5323245,37.9197883 C47.5547739,37.9401108 47.5804924,37.9621275 47.6094998,37.9855184 C47.8887536,38.2107024 48.3816275,38.4933232 49.084191,38.8307147 C50.7489622,39.6301865 61.018105,43.6160331 62.9282879,44.4127695 C73.4487403,48.800845 79.0402908,52.4832747 79.0402908,56.4328328 C79.0402908,61.300834 67.6756908,64.8340421 44.8758275,68.8714512 C40.8096255,69.5914959 25.6393498,72.1044402 22.5655328,72.6582195 C15.8045261,73.8762832 12.1455475,74.8153151 11.554113,75.5103284 Z"/>
      <use fill="url(#logo-d)" stroke="#628AB8" xlink:href="#logo-f"/>
      <use stroke="url(#logo-d)" stroke-width="2" xlink:href="#logo-f"/>
      <g transform="translate(18.07)">
        <use fill="url(#logo-a)" xlink:href="#logo-g"/>
        <path stroke="#1B1564" stroke-width="3" d="M26.2799385,-3.36175698 L54.1067975,52.450688 L26.2799385,61.5286621 L-1.54692055,52.450688 L26.2799385,-3.36175698 Z"/>
        <path stroke="#FBF1E3" d="M26.2799385,1.12058566 L1.27737753,51.2683244 L26.2799385,59.4249259 L51.2824994,51.2683244 L26.2799385,1.12058566 Z"/>
        <polygon fill="#2A3493" points="26.28 0 26.28 58.668 0 50.091"/>
      </g>
      <use fill="#FBF1E3" xlink:href="#logo-h"/>
      <path stroke="#1B1564" stroke-width="3" d="M48.5904648,16.3177953 L45.2304324,20.3935297 L41.693326,16.3082595 L32.360923,22.2561594 L45.2065999,-3.35410466 L57.929641,22.1728033 L48.5904648,16.3177953 Z"/>
      <polygon fill="#EDDFCB" points="45.174 0 45.174 18.069 41.885 14.2 36.139 18.069"/>
      <g transform="translate(0 33.127)">
        <g transform="translate(8.03)">
          <use fill="#1B1564" xlink:href="#logo-i"/>
          <rect width="2.665" height="11.404" x="7.731" y="16.48" stroke="#1B1564" stroke-width="3"/>
          <use fill="#93E342" xlink:href="#logo-j"/>
          <ellipse cx="9.347" cy="9.506" stroke="#1B1564" stroke-width="3" rx="10.847" ry="11.006"/>
          <path fill="#7CC730" d="M9.34661408,19.012987 C14.5086065,19.012987 14.5086065,0 9.34661408,0 C4.18462166,0 0,4.25620212 0,9.50649351 C0,14.7567849 4.18462166,19.012987 9.34661408,19.012987 Z"/>
        </g>
        <g transform="translate(19.073 7.027)">
          <use fill="#1B1564" xlink:href="#logo-k"/>
          <rect width="2.665" height="11.404" x="7.731" y="16.48" stroke="#1B1564" stroke-width="3"/>
          <use fill="#93E342" xlink:href="#logo-l"/>
          <ellipse cx="9.347" cy="9.506" stroke="#1B1564" stroke-width="3" rx="10.847" ry="11.006"/>
          <path fill="#7CC730" d="M9.34661408,19.012987 C14.5086065,19.012987 14.5086065,0 9.34661408,0 C4.18462166,0 0,4.25620212 0,9.50649351 C0,14.7567849 4.18462166,19.012987 9.34661408,19.012987 Z"/>
        </g>
        <g transform="translate(0 6.023)">
          <use fill="#1B1564" xlink:href="#logo-m"/>
          <rect width="2.665" height="11.404" x="7.731" y="16.48" stroke="#1B1564" stroke-width="3"/>
          <use fill="#93E342" xlink:href="#logo-n"/>
          <ellipse cx="9.347" cy="9.506" stroke="#1B1564" stroke-width="3" rx="10.847" ry="11.006"/>
          <path fill="#7CC730" d="M9.34661408,19.012987 C14.5086065,19.012987 14.5086065,0 9.34661408,0 C4.18462166,0 0,4.25620212 0,9.50649351 C0,14.7567849 4.18462166,19.012987 9.34661408,19.012987 Z"/>
        </g>
      </g>
    </g>
  </g>
</svg>
