<svg xmlns="http://www.w3.org/2000/svg" xmlns:xlink="http://www.w3.org/1999/xlink" width="200" height="152" viewBox="0 0 200 152">
  <defs>
    <polygon id="static-website-a" points=".032 .145 .032 151.131 199.574 151.131 199.574 .145"/>
  </defs>
  <g fill="none" fill-rule="evenodd">
    <mask id="static-website-b" fill="#fff">
      <use xlink:href="#static-website-a"/>
    </mask>
    <path fill="#334fa7" d="M189.062766,0.145405973 L10.5117021,0.145405973 C4.7143617,0.145405973 0,5.21973094 0,11.4584486 L0,139.818147 C0,146.054575 4.7143617,151.130617 10.5117021,151.130617 L189.062766,151.130617 C194.859574,151.130617 199.573936,146.054575 199.573936,139.818147 L199.573936,11.4584486 C199.573936,5.21973094 194.859574,0.145405973 189.062766,0.145405973 Z M193.190957,139.818147 C193.190957,142.266578 191.339894,144.259326 189.062766,144.259326 L10.5117021,144.259326 C8.23404255,144.259326 6.38297872,142.266578 6.38297872,139.818147 L6.38297872,26.8680469 L193.190957,26.8680469 L193.190957,139.818147 Z M193.190957,19.9984734 L6.38297872,19.9984734 L6.38297872,11.4584486 C6.38297872,9.00772827 8.23404255,7.01497949 10.5117021,7.01497949 L189.062766,7.01497949 C191.339894,7.01497949 193.190957,9.00772827 193.190957,11.4584486 L193.190957,19.9984734 Z" mask="url(#static-website-b)"/>
    <path fill="#334fa7" d="M12.9776596 140.596126L62.0718085 140.596126C63.8340426 140.596126 65.2632979 139.057914 65.2632979 137.16134L65.2632979 67.602328C65.2632979 65.7040359 63.8340426 64.1675413 62.0718085 64.1675413L12.9776596 64.1675413C11.2159574 64.1675413 9.78617021 65.7040359 9.78617021 67.602328L9.78617021 137.16134C9.78617021 139.060204 11.2159574 140.596126 12.9776596 140.596126zM16.1691489 133.726553L58.8803191 133.726553 58.8803191 71.0371148 16.1691489 71.0371148 16.1691489 133.726553zM186.596277 64.1675413L73.6744681 64.1675413C71.9101064 64.1675413 70.4829787 65.7040359 70.4829787 67.602328L70.4829787 137.16134C70.4829787 139.057914 71.9101064 140.596126 73.6744681 140.596126L186.596277 140.596126C188.357979 140.596126 189.787766 139.057914 189.787766 137.16134L189.787766 67.602328C189.787766 65.7040359 188.357979 64.1675413 186.596277 64.1675413zM76.8659574 133.726553L183.404787 133.726553 183.404787 71.0371148 76.8659574 71.0371148 76.8659574 133.726553zM12.9776596 60.1247973L186.596277 60.1247973C188.357979 60.1247973 189.787766 58.5883026 189.787766 56.6900105L189.787766 33.849251C189.787766 31.9509589 188.357979 30.4144643 186.596277 30.4144643L12.9776596 30.4144643C11.2159574 30.4144643 9.78617021 31.9509589 9.78617021 33.849251L9.78617021 56.6900105C9.78617021 58.5883026 11.2159574 60.1247973 12.9776596 60.1247973zM16.1691489 53.2552237L183.404787 53.2552237 183.404787 37.2840378 16.1691489 37.2840378 16.1691489 53.2552237zM113.829787 10.0719397L33.8308511 10.0719397C32.0664894 10.0719397 30.6393617 11.6107242 30.6393617 13.5067265 30.6393617 15.4033012 32.0664894 16.9415132 33.8308511 16.9415132L113.829787 16.9415132C115.591489 16.9415132 117.021277 15.4033012 117.021277 13.5067265 117.021277 11.6084343 115.591489 10.0719397 113.829787 10.0719397zM23.1925532 10.0742296C22.3510638 10.0742296 21.5281915 10.4411793 20.9335106 11.0760424 20.3414894 11.717775 20.0010638 12.6010877 20.0010638 13.5044366 20.0010638 14.4100754 20.3414894 15.2956779 20.9335106 15.9351207 21.5281915 16.5728461 22.3510638 16.9438031 23.1925532 16.9438031 24.0319149 16.9438031 24.8526596 16.5728461 25.4489362 15.9351207 26.0430851 15.2956779 26.3840426 14.4100754 26.3840426 13.5044366 26.3840426 12.6010877 26.0430851 11.717775 25.4489362 11.0760424 24.8526596 10.4411793 24.0319149 10.0742296 23.1925532 10.0742296zM12.9797872 10.0696498C12.1382979 10.0696498 11.3154255 10.4365996 10.7212766 11.0760424 10.1292553 11.717775 9.78829787 12.6010877 9.78829787 13.5044366 9.78829787 14.4100754 10.1292553 15.2956779 10.7212766 15.9351207 11.3154255 16.5728461 12.1382979 16.9392234 12.9797872 16.9392234 13.8175532 16.9392234 14.6398936 16.5728461 15.2345745 15.9351207 15.8308511 15.2956779 16.1712766 14.4100754 16.1712766 13.5044366 16.1712766 12.6010877 15.8308511 11.717775 15.2345745 11.0760424 14.6398936 10.4365996 13.8175532 10.0696498 12.9797872 10.0696498z"/>
    <path fill="#334fa7" d="M50 77.7011736L25.05 77.7011736C23.287766 77.7011736 21.8585106 79.2393856 21.8585106 81.1359603 21.8585106 83.0342525 23.287766 84.5707471 25.05 84.5707471L50 84.5707471C51.7617021 84.5707471 53.1914894 83.0342525 53.1914894 81.1359603 53.1914894 79.2393856 51.7617021 77.7011736 50 77.7011736zM50 91.4403206L25.05 91.4403206C23.287766 91.4403206 21.8585106 92.9785326 21.8585106 94.8751073 21.8585106 96.7733995 23.287766 98.3098941 25.05 98.3098941L50 98.3098941C51.7617021 98.3098941 53.1914894 96.7733995 53.1914894 94.8751073 53.1914894 92.9785326 51.7617021 91.4403206 50 91.4403206zM50 105.179468L25.05 105.179468C23.287766 105.179468 21.8585106 106.71768 21.8585106 108.614254 21.8585106 110.512547 23.287766 112.049041 25.05 112.049041L50 112.049041C51.7617021 112.049041 53.1914894 110.512547 53.1914894 108.614254 53.1914894 106.71768 51.7617021 105.179468 50 105.179468zM50 118.918615L25.05 118.918615C23.287766 118.918615 21.8585106 120.456827 21.8585106 122.353401 21.8585106 124.251694 23.287766 125.788188 25.05 125.788188L50 125.788188C51.7617021 125.788188 53.1914894 124.251694 53.1914894 122.353401 53.1914894 120.456827 51.7617021 118.918615 50 118.918615z"/>
  </g>
</svg>
