<svg xmlns="http://www.w3.org/2000/svg" width="200" height="179" viewBox="0 0 200 179">
  <g fill="#334fa7" fill-rule="evenodd" transform="translate(0 .125)">
    <path d="M82.5359817,155.508583 L179.138027,155.508583 C180.927504,155.508583 182.378855,153.953737 182.378855,152.036652 L182.378855,96.3977923 C182.378855,94.4807075 180.927504,92.9258608 179.138027,92.9258608 L82.5359817,92.9258608 C80.7465048,92.9258608 79.2951542,94.4807075 79.2951542,96.3977923 L79.2951542,152.036652 C79.2951542,153.953737 80.7465048,155.508583 82.5359817,155.508583 Z M85.7768092,148.56472 L175.8972,148.56472 L175.8972,99.8697238 L85.7768092,99.8697238 L85.7768092,148.56472 Z"/>
    <path d="M196.762776,159.609077 L192.081751,159.609077 L192.081751,91.912185 C192.081751,86.8504434 188.239706,82.7306228 183.514438,82.7306228 L137.725527,82.7306228 L137.725527,69.8496063 L146.897661,69.8496063 C152.311917,69.8496063 156.7167,65.1290147 156.7167,59.3265726 L156.7167,10.521299 C156.7167,4.7205916 152.311917,0 146.897661,0 L122.076787,0 C116.66253,0 112.257208,4.7205916 112.257208,10.521299 L112.257208,23.1288172 L10.662336,23.1288172 C4.78191903,23.1288172 0,28.2535849 0,34.5556094 L0,116.139043 C0,122.440489 4.78191903,127.565257 10.662336,127.565257 L56.5839736,127.565257 L53.9682968,140.146177 L45.3297652,140.146177 C43.5422781,140.146177 42.0925414,141.700433 42.0925414,143.6155 C42.0925414,145.533457 43.5422781,147.084822 45.3297652,147.084822 L69.2587837,147.084822 L69.2587837,159.609077 L64.5777581,159.609077 C62.7886525,159.609077 61.3405344,161.16102 61.3405344,163.078399 C61.3405344,171.453922 67.6973627,178.265937 75.5120209,178.265937 L185.826355,178.265937 C193.641013,178.265937 200,171.453922 200,163.078399 C200,161.16102 198.549724,159.609077 196.762776,159.609077 Z M183.514438,89.669268 C184.669048,89.669268 185.607303,90.6771062 185.607303,91.912185 L185.607303,159.606764 L75.7332312,159.606764 L75.7332312,143.633424 C75.7332312,143.627064 75.7332312,143.622438 75.7332312,143.6155 C75.7332312,143.608561 75.7332312,143.604513 75.7332312,143.597575 L75.7332312,91.912185 C75.7332312,90.6771062 76.670947,89.669268 77.8260963,89.669268 L183.514438,89.669268 Z M118.731656,10.521299 C118.731656,8.54667619 120.232648,6.93864517 122.076787,6.93864517 L146.897661,6.93864517 C148.741799,6.93864517 150.242252,8.54667619 150.242252,10.521299 L150.242252,12.0275632 L118.731656,12.0275632 L118.731656,10.521299 Z M118.731656,49.957667 L150.242252,49.957667 L150.242252,18.9662084 L118.731656,18.9662084 L118.731656,49.957667 Z M118.731656,56.8963122 L150.242252,56.8963122 L150.242252,59.3265726 C150.242252,61.3029301 148.741799,62.9109611 146.897661,62.9109611 L122.076787,62.9109611 C120.232648,62.9109611 118.731656,61.3029301 118.731656,59.3265726 L118.731656,56.8963122 Z M6.47444751,34.5556094 C6.47444751,32.0802477 8.35203729,30.0674624 10.662336,30.0674624 L112.257208,30.0674624 L112.257208,59.3265726 C112.257208,65.1290147 116.66253,69.8496063 122.076787,69.8496063 L131.251079,69.8496063 L131.251079,82.7306228 L77.8260963,82.7306228 C73.1029869,82.7306228 69.2587837,86.8504434 69.2587837,91.912185 L69.2587837,104.542832 L6.47444751,104.542832 L6.47444751,34.5556094 Z M10.662336,120.626612 C8.35203729,120.626612 6.47444751,118.612092 6.47444751,116.139043 L6.47444751,111.481477 L69.2587837,111.481477 L69.2587837,120.626612 L10.662336,120.626612 Z M60.6029869,140.146177 L63.2186637,127.562944 L69.2587837,127.562944 L69.2587837,140.146177 L60.6029869,140.146177 Z M185.826355,171.327292 L75.5120209,171.327292 C72.4220908,171.327292 69.7519208,169.366546 68.5277106,166.547722 L192.810666,166.547722 C191.586455,169.366546 188.916285,171.327292 185.826355,171.327292 Z"/>
  </g>
</svg>
